<svg xmlns="http://www.w3.org/2000/svg" width="128" height="128" viewBox="0 0 128 128">
  <defs>
    <linearGradient id="f" x1="0" y1="0" x2="1" y2="1">
      <stop offset="0%" stop-color="#FFD26F"/>
      <stop offset="100%" stop-color="#FF6B6B"/>
    </linearGradient>
    <pattern id="dots" width="12" height="12" patternUnits="userSpaceOnUse">
      <circle cx="2" cy="2" r="2" fill="rgba(255,255,255,0.3)"/>
    </pattern>
  </defs>
  <rect width="128" height="128" rx="24" fill="url(#f)"/>
  <rect x="12" y="12" width="104" height="104" rx="24" fill="url(#dots)"/>
  <circle cx="64" cy="52" r="30" fill="#F7C6A9"/>
  <path d="M30 112c12-28 34-40 34-40s22 12 34 40" fill="#631515"/>
  <path d="M44 50c8-14 38-14 44 2" fill="#2F0F0F"/>
  <circle cx="54" cy="58" r="4.5" fill="#2F0F0F"/>
  <circle cx="74" cy="58" r="4.5" fill="#2F0F0F"/>
  <path d="M56 70c4 5 12 5 16 0" stroke="#401414" stroke-width="3" stroke-linecap="round"/>
  <path d="M48 88c8 8 28 8 36 0" stroke="#FBE1D1" stroke-width="5" stroke-linecap="round" opacity=".6"/>
</svg>

