<svg xmlns="http://www.w3.org/2000/svg" width="128" height="128" viewBox="0 0 128 128">
  <defs>
    <linearGradient id="u" x1="0" y1="0" x2="1" y2="1">
      <stop offset="0%" stop-color="#D9DDEB"/>
      <stop offset="100%" stop-color="#A1A5B6"/>
    </linearGradient>
    <linearGradient id="v" x1="0" y1="1" x2="1" y2="0">
      <stop offset="0%" stop-color="#2E2E3F"/>
      <stop offset="100%" stop-color="#4D4D66"/>
    </linearGradient>
  </defs>
  <rect width="128" height="128" rx="32" fill="url(#u)"/>
  <path d="M22 94c18-12 34-16 42-16s24 4 42 16" stroke="rgba(255,255,255,0.45)" stroke-width="6" stroke-linecap="round"/>
  <circle cx="64" cy="52" r="30" fill="#F4C8AE"/>
  <path d="M20 120c18-36 44-48 44-48s26 12 44 48" fill="url(#v)"/>
  <path d="M40 50c8-14 36-14 48 0" fill="#141421"/>
  <circle cx="54" cy="58" r="4.5" fill="#141421"/>
  <circle cx="76" cy="58" r="4.5" fill="#141421"/>
  <path d="M56 70c4 6 12 6 16 0" stroke="#141421" stroke-width="3" stroke-linecap="round"/>
  <path d="M50 92c8 6 24 6 28 0" stroke="#FBE1D1" stroke-width="5" stroke-linecap="round" opacity=".7"/>
</svg>

