<svg xmlns="http://www.w3.org/2000/svg" width="128" height="128" viewBox="0 0 128 128">
  <defs>
    <linearGradient id="m" x1="0" y1="0" x2="1" y2="1">
      <stop offset="0%" stop-color="#FF9A9E"/>
      <stop offset="100%" stop-color="#FAD0C4"/>
    </linearGradient>
    <linearGradient id="n" x1="0" y1="1" x2="1" y2="0">
      <stop offset="0%" stop-color="#60112F"/>
      <stop offset="100%" stop-color="#8C1F4B"/>
    </linearGradient>
  </defs>
  <rect width="128" height="128" rx="28" fill="url(#m)"/>
  <path d="M18 96c18-14 34-20 46-20s28 6 46 20" stroke="rgba(255,255,255,0.4)" stroke-width="6" stroke-linecap="round"/>
  <circle cx="64" cy="52" r="30" fill="#F7C8B5"/>
  <path d="M26 118c14-34 38-46 38-46s24 12 38 46" fill="url(#n)"/>
  <path d="M44 48c8-16 40-16 46 0" fill="#300714"/>
  <circle cx="54" cy="58" r="4.5" fill="#300714"/>
  <circle cx="76" cy="58" r="4.5" fill="#300714"/>
  <path d="M56 70c4 6 12 6 16 0" stroke="#300714" stroke-width="3" stroke-linecap="round"/>
  <path d="M48 90c8 6 24 6 32 0" stroke="#FCE0D2" stroke-width="5" stroke-linecap="round" opacity=".7"/>
</svg>

