<svg xmlns="http://www.w3.org/2000/svg" width="128" height="128" viewBox="0 0 128 128">
  <defs>
    <linearGradient id="s" x1="0" y1="0" x2="1" y2="1">
      <stop offset="0%" stop-color="#FFE259"/>
      <stop offset="100%" stop-color="#FFA751"/>
    </linearGradient>
    <linearGradient id="t" x1="0" y1="1" x2="1" y2="0">
      <stop offset="0%" stop-color="#704214"/>
      <stop offset="100%" stop-color="#9C5B23"/>
    </linearGradient>
  </defs>
  <rect width="128" height="128" rx="28" fill="url(#s)"/>
  <path d="M18 90c20-10 36-14 46-14s26 4 46 14" stroke="rgba(255,255,255,0.5)" stroke-width="6" stroke-linecap="round"/>
  <circle cx="64" cy="52" r="30" fill="#F7C9AA"/>
  <path d="M24 118c16-36 38-48 38-48s22 12 38 48" fill="url(#t)"/>
  <path d="M40 52c8-18 40-18 48 0" fill="#4B250A"/>
  <circle cx="52" cy="58" r="4.5" fill="#4B250A"/>
  <circle cx="76" cy="58" r="4.5" fill="#4B250A"/>
  <path d="M56 70c4 6 12 6 16 0" stroke="#4B250A" stroke-width="3" stroke-linecap="round"/>
  <path d="M50 92c8 6 22 6 28 0" stroke="#FDE3D1" stroke-width="5" stroke-linecap="round" opacity=".7"/>
</svg>

