<svg xmlns="http://www.w3.org/2000/svg" width="128" height="128" viewBox="0 0 128 128">
  <defs>
    <linearGradient id="c" x1="0" y1="0" x2="1" y2="1">
      <stop offset="0%" stop-color="#64E6FF"/>
      <stop offset="100%" stop-color="#4061FF"/>
    </linearGradient>
    <radialGradient id="d" cx=".5" cy=".4" r=".8">
      <stop offset="0%" stop-color="#FFFFFF" stop-opacity=".6"/>
      <stop offset="100%" stop-color="#FFFFFF" stop-opacity="0"/>
    </radialGradient>
  </defs>
  <rect width="128" height="128" rx="28" fill="url(#c)"/>
  <circle cx="64" cy="64" r="56" fill="url(#d)"/>
  <circle cx="64" cy="52" r="30" fill="#F3C7AE"/>
  <path d="M36 110c6-26 28-42 28-42s22 16 28 42" fill="#12355B"/>
  <path d="M42 48c6-16 40-16 44 0" fill="#0F1E3B"/>
  <path d="M52 78c6 10 18 10 24 0" stroke="#0F1E3B" stroke-width="4" stroke-linecap="round"/>
  <circle cx="54" cy="58" r="4.5" fill="#0F1E3B"/>
  <circle cx="74" cy="58" r="4.5" fill="#0F1E3B"/>
  <path d="M48 92c8 4 32 4 40 0" stroke="#F9DCC8" stroke-width="5" stroke-linecap="round" opacity=".7"/>
</svg>

